<?xml version="1.0" standalone="no"?>
<!DOCTYPE svg PUBLIC "-//W3C//DTD SVG 20010904//EN"
 "http://www.w3.org/TR/2001/REC-SVG-20010904/DTD/svg10.dtd">
<svg version="1.0" xmlns="http://www.w3.org/2000/svg"
 width="900.000000pt" height="900.000000pt" viewBox="0 0 900.000000 900.000000"
 preserveAspectRatio="xMidYMid meet">
<metadata>
Created by potrace 1.14, written by Peter Selinger 2001-2017
</metadata>
<g transform="translate(0.000000,900.000000) scale(0.100000,-0.100000)"
fill="#000000" stroke="none">
<path d="M4287 8584 c-1 -1 -54 -4 -117 -8 -63 -3 -131 -8 -150 -11 -352 -56
-514 -92 -740 -166 -411 -134 -836 -352 -1155 -592 -609 -459 -1065 -1055
-1338 -1747 -137 -348 -209 -641 -256 -1042 -18 -152 -21 -571 -7 -773 34
-456 189 -1005 406 -1438 196 -388 430 -709 754 -1032 552 -550 1182 -898
1946 -1074 119 -28 318 -63 425 -76 117 -14 740 -13 875 1 1544 165 2861 1225
3360 2704 81 242 150 546 182 810 14 118 18 735 5 865 -29 293 -116 671 -219
955 -109 301 -269 611 -456 885 -67 99 -202 278 -249 330 -10 11 -38 43 -62
70 -234 264 -581 562 -838 720 -291 179 -498 282 -763 379 -269 98 -630 186
-905 220 -89 12 -687 28 -698 20z"/>
</g>
</svg>
